<svg width="24" height="24" viewBox="0 0 24 24" fill="none" xmlns="http://www.w3.org/2000/svg">
<circle cx="12" cy="12" r="12" fill="#101750"/>
<path d="M19.3337 7.42188C18.7835 7.66636 18.2014 7.82744 17.6057 7.9C18.2317 7.52512 18.7025 6.92956 18.9297 6.22501C18.3379 6.57894 17.6914 6.82728 17.0181 6.95938C16.7346 6.65548 16.3936 6.41372 16.0159 6.2488C15.6382 6.08388 15.2316 5.99923 14.8209 6.00001C13.158 6.00001 11.8124 7.35625 11.8124 9.02813C11.8112 9.26068 11.8373 9.49254 11.89 9.71876C10.6976 9.66159 9.53006 9.3505 8.46198 8.8054C7.3939 8.26029 6.44883 7.49318 5.68724 6.55313C5.42005 7.01379 5.27875 7.5394 5.2781 8.07501C5.2781 9.125 5.81374 10.0531 6.62255 10.5969C6.14335 10.5852 5.67398 10.4555 5.25427 10.2188V10.2563C5.25427 11.725 6.29316 12.9469 7.66816 13.225C7.40959 13.2955 7.14314 13.3312 6.87555 13.3313C6.68567 13.3316 6.49622 13.3128 6.30996 13.275C6.69221 14.4781 7.80474 15.3531 9.1226 15.3781C8.05174 16.2221 6.73701 16.6784 5.38505 16.675C5.14507 16.6747 4.90531 16.66 4.66699 16.6312C6.04235 17.5294 7.64109 18.0045 9.27293 18C14.8145 18 17.8419 13.3843 17.8419 9.38125C17.8419 9.25001 17.8385 9.11875 17.8324 8.99063C18.4201 8.56315 18.9284 8.03192 19.3337 7.42188Z" fill="white"/>
</svg>
