<svg width="14" height="13" viewBox="0 0 14 13" fill="none" xmlns="http://www.w3.org/2000/svg">
<path d="M12.7141 1.30182C11.9713 0.554134 10.9865 0.0995497 9.93875 0.0207359C8.89102 -0.0580779 7.84997 0.244114 7.00494 0.872356C6.11474 0.206079 5.00672 -0.096043 3.90401 0.0268303C2.80131 0.149704 1.78582 0.688445 1.06205 1.53456C0.338284 2.38068 -0.0400086 3.47133 0.00335513 4.58688C0.0467189 5.70243 0.508518 6.76001 1.29576 7.54665L6.50818 12.7917C6.57323 12.8577 6.65061 12.9101 6.73587 12.9459C6.82113 12.9816 6.91257 13 7.00494 13C7.0973 13 7.18875 12.9816 7.27401 12.9459C7.35927 12.9101 7.43665 12.8577 7.50169 12.7917L12.7141 7.54665C13.1218 7.13671 13.4452 6.64995 13.6658 6.11419C13.8864 5.57843 14 5.00418 14 4.42424C14 3.8443 13.8864 3.27004 13.6658 2.73428C13.4452 2.19852 13.1218 1.71177 12.7141 1.30182ZM11.7276 6.55396L7.00494 11.2992L2.28227 6.55396C1.8661 6.13343 1.5826 5.59861 1.46733 5.01657C1.35207 4.43454 1.41017 3.83121 1.63436 3.28228C1.85854 2.73335 2.23882 2.26325 2.72749 1.93097C3.21616 1.59868 3.79147 1.419 4.38123 1.41447C5.16912 1.41641 5.92404 1.73293 6.4802 2.29452C6.54524 2.3605 6.62262 2.41288 6.70788 2.44862C6.79314 2.48437 6.88459 2.50277 6.97695 2.50277C7.06931 2.50277 7.16076 2.48437 7.24602 2.44862C7.33128 2.41288 7.40866 2.3605 7.47371 2.29452C8.04625 1.79527 8.7859 1.53355 9.54296 1.56233C10.3 1.59111 11.0179 1.90824 11.5514 2.44954C12.0849 2.99083 12.3941 3.71586 12.4164 4.47788C12.4387 5.23989 12.1725 5.98199 11.6716 6.55396H11.7276Z" fill="white"/>
</svg>
