<svg width="16" height="16" viewBox="0 0 16 16" fill="none" xmlns="http://www.w3.org/2000/svg">
<path d="M10.4167 9C10.5714 9 10.7197 8.94732 10.8291 8.85355C10.9385 8.75979 11 8.63261 11 8.5C11 8.36739 10.9385 8.24021 10.8291 8.14645C10.7197 8.05268 10.5714 8 10.4167 8C10.262 8 10.1136 8.05268 10.0042 8.14645C9.89479 8.24021 9.83333 8.36739 9.83333 8.5C9.83333 8.63261 9.89479 8.75979 10.0042 8.85355C10.1136 8.94732 10.262 9 10.4167 9ZM10.4167 11C10.5714 11 10.7197 10.9473 10.8291 10.8536C10.9385 10.7598 11 10.6326 11 10.5C11 10.3674 10.9385 10.2402 10.8291 10.1464C10.7197 10.0527 10.5714 10 10.4167 10C10.262 10 10.1136 10.0527 10.0042 10.1464C9.89479 10.2402 9.83333 10.3674 9.83333 10.5C9.83333 10.6326 9.89479 10.7598 10.0042 10.8536C10.1136 10.9473 10.262 11 10.4167 11ZM8.08333 8.5C8.08333 8.63261 8.02187 8.75979 7.91248 8.85355C7.80308 8.94732 7.65471 9 7.5 9C7.34529 9 7.19692 8.94732 7.08752 8.85355C6.97812 8.75979 6.91667 8.63261 6.91667 8.5C6.91667 8.36739 6.97812 8.24021 7.08752 8.14645C7.19692 8.05268 7.34529 8 7.5 8C7.65471 8 7.80308 8.05268 7.91248 8.14645C8.02187 8.24021 8.08333 8.36739 8.08333 8.5ZM8.08333 10.5C8.08333 10.6326 8.02187 10.7598 7.91248 10.8536C7.80308 10.9473 7.65471 11 7.5 11C7.34529 11 7.19692 10.9473 7.08752 10.8536C6.97812 10.7598 6.91667 10.6326 6.91667 10.5C6.91667 10.3674 6.97812 10.2402 7.08752 10.1464C7.19692 10.0527 7.34529 10 7.5 10C7.65471 10 7.80308 10.0527 7.91248 10.1464C8.02187 10.2402 8.08333 10.3674 8.08333 10.5ZM4.58333 9C4.73804 9 4.88642 8.94732 4.99581 8.85355C5.10521 8.75979 5.16667 8.63261 5.16667 8.5C5.16667 8.36739 5.10521 8.24021 4.99581 8.14645C4.88642 8.05268 4.73804 8 4.58333 8C4.42862 8 4.28025 8.05268 4.17085 8.14645C4.06146 8.24021 4 8.36739 4 8.5C4 8.63261 4.06146 8.75979 4.17085 8.85355C4.28025 8.94732 4.42862 9 4.58333 9ZM4.58333 11C4.73804 11 4.88642 10.9473 4.99581 10.8536C5.10521 10.7598 5.16667 10.6326 5.16667 10.5C5.16667 10.3674 5.10521 10.2402 4.99581 10.1464C4.88642 10.0527 4.73804 10 4.58333 10C4.42862 10 4.28025 10.0527 4.17085 10.1464C4.06146 10.2402 4 10.3674 4 10.5C4 10.6326 4.06146 10.7598 4.17085 10.8536C4.28025 10.9473 4.42862 11 4.58333 11Z" fill="#8A8FB9"/>
<path fill-rule="evenodd" clip-rule="evenodd" d="M5.2093 2C5.32032 2 5.4268 2.04515 5.5053 2.12553C5.5838 2.2059 5.62791 2.31491 5.62791 2.42857V2.86457C5.9974 2.85714 6.40428 2.85714 6.85191 2.85714H9.14754C9.59572 2.85714 10.0026 2.85714 10.3721 2.86457V2.42857C10.3721 2.31491 10.4162 2.2059 10.4947 2.12553C10.5732 2.04515 10.6797 2 10.7907 2C10.9017 2 11.0082 2.04515 11.0867 2.12553C11.1652 2.2059 11.2093 2.31491 11.2093 2.42857V2.90114C11.3544 2.91257 11.4917 2.92686 11.6218 2.94457C12.2759 3.03486 12.8056 3.22457 13.2236 3.652C13.6411 4.08 13.8264 4.62229 13.9146 5.292C14 5.94343 14 6.77486 14 7.82514V9.032C14 10.0823 14 10.9143 13.9146 11.5651C13.8264 12.2349 13.6411 12.7771 13.2236 13.2051C12.8056 13.6326 12.2759 13.8223 11.6218 13.9126C10.9855 14 10.1734 14 9.14754 14H6.85247C5.8266 14 5.01395 14 4.37823 13.9126C3.72409 13.8223 3.19442 13.6326 2.77637 13.2051C2.35888 12.7771 2.17358 12.2349 2.0854 11.5651C2 10.9137 2 10.0823 2 9.032V7.82514C2 6.77486 2 5.94286 2.0854 5.292C2.17358 4.62229 2.35888 4.08 2.77637 3.652C3.19442 3.22457 3.72409 3.03486 4.37823 2.94457C4.50828 2.92686 4.64614 2.91257 4.7907 2.90114V2.42857C4.7907 2.31491 4.8348 2.2059 4.9133 2.12553C4.99181 2.04515 5.09828 2 5.2093 2ZM4.4893 3.79429C3.92837 3.87143 3.60465 4.01657 3.36856 4.25829C3.13247 4.5 2.9907 4.83143 2.91535 5.40629C2.90251 5.50343 2.89191 5.60629 2.88298 5.71429H13.117C13.1081 5.60571 13.0975 5.50343 13.0847 5.40571C13.0093 4.83143 12.8675 4.5 12.6314 4.25829C12.3953 4.01657 12.0716 3.87143 11.5101 3.79429C10.9369 3.71543 10.1807 3.71429 9.11628 3.71429H6.88372C5.81935 3.71429 5.06363 3.71543 4.4893 3.79429ZM2.83721 7.85714C2.83721 7.36914 2.83721 6.94457 2.84447 6.57143H13.1555C13.1628 6.94457 13.1628 7.36914 13.1628 7.85714V9C13.1628 10.0897 13.1617 10.864 13.0847 11.4514C13.0093 12.0257 12.8675 12.3571 12.6314 12.5989C12.3953 12.8406 12.0716 12.9857 11.5101 13.0629C10.9369 13.1417 10.1807 13.1429 9.11628 13.1429H6.88372C5.81935 13.1429 5.06363 13.1417 4.4893 13.0629C3.92837 12.9857 3.60465 12.8406 3.36856 12.5989C3.13247 12.3571 2.9907 12.0257 2.91535 11.4509C2.83833 10.864 2.83721 10.0897 2.83721 9V7.85714Z" fill="#8A8FB9"/>
</svg>
