<svg width="12" height="12" viewBox="0 0 12 12" fill="none" xmlns="http://www.w3.org/2000/svg">
<path d="M7.74982 4.8334H5.99982V3.0834C5.99982 2.92869 5.93836 2.78032 5.82897 2.67092C5.71957 2.56152 5.5712 2.50007 5.41649 2.50007C5.26178 2.50007 5.11341 2.56152 5.00401 2.67092C4.89461 2.78032 4.83316 2.92869 4.83316 3.0834V4.8334H3.08316C2.92845 4.8334 2.78007 4.89486 2.67068 5.00425C2.56128 5.11365 2.49982 5.26202 2.49982 5.41673C2.49982 5.57144 2.56128 5.71982 2.67068 5.82921C2.78007 5.93861 2.92845 6.00007 3.08316 6.00007H4.83316V7.75007C4.83316 7.90478 4.89461 8.05315 5.00401 8.16255C5.11341 8.27194 5.26178 8.3334 5.41649 8.3334C5.5712 8.3334 5.71957 8.27194 5.82897 8.16255C5.93836 8.05315 5.99982 7.90478 5.99982 7.75007V6.00007H7.74982C7.90453 6.00007 8.05291 5.93861 8.1623 5.82921C8.2717 5.71982 8.33316 5.57144 8.33316 5.41673C8.33316 5.26202 8.2717 5.11365 8.1623 5.00425C8.05291 4.89486 7.90453 4.8334 7.74982 4.8334ZM11.664 10.8359L9.49982 8.68923C10.3399 7.64181 10.7467 6.31232 10.6366 4.97416C10.5266 3.63599 9.90796 2.39086 8.90804 1.49478C7.90812 0.598695 6.60288 0.119781 5.26069 0.156507C3.91851 0.193234 2.64141 0.742811 1.69199 1.69223C0.742567 2.64165 0.19299 3.91876 0.156263 5.26094C0.119536 6.60312 0.598451 7.90837 1.49453 8.90829C2.39061 9.90821 3.63575 10.5268 4.97391 10.6369C6.31208 10.7469 7.64156 10.3401 8.68899 9.50007L10.8357 11.6467C10.8899 11.7014 10.9544 11.7448 11.0255 11.7744C11.0966 11.804 11.1728 11.8193 11.2498 11.8193C11.3268 11.8193 11.4031 11.804 11.4742 11.7744C11.5452 11.7448 11.6098 11.7014 11.664 11.6467C11.7691 11.538 11.8279 11.3926 11.8279 11.2413C11.8279 11.09 11.7691 10.9447 11.664 10.8359ZM5.41649 9.50007C4.60888 9.50007 3.81941 9.26058 3.14791 8.8119C2.47641 8.36322 1.95304 7.72549 1.64398 6.97936C1.33492 6.23323 1.25406 5.4122 1.41162 4.62011C1.56917 3.82803 1.95807 3.10045 2.52914 2.52938C3.1002 1.95832 3.82778 1.56942 4.61987 1.41186C5.41196 1.2543 6.23298 1.33517 6.97911 1.64422C7.72525 1.95328 8.36298 2.47665 8.81166 3.14815C9.26034 3.81966 9.49982 4.60913 9.49982 5.41673C9.49982 6.4997 9.06962 7.53831 8.30384 8.30409C7.53807 9.06986 6.49946 9.50007 5.41649 9.50007Z" fill="#7E33E0"/>
</svg>
