<svg width="16" height="16" viewBox="0 0 16 16" fill="none" xmlns="http://www.w3.org/2000/svg">
<path d="M11.1967 15H11.2164C11.586 15 11.9353 14.8544 12.1999 14.5898L14.0984 12.6913C14.1634 12.6263 14.215 12.5492 14.2503 12.4643C14.2855 12.3793 14.3036 12.2883 14.3036 12.1964C14.3036 12.1044 14.2855 12.0134 14.2503 11.9285C14.215 11.8435 14.1634 11.7664 14.0984 11.7014L11.2983 8.90129C11.2333 8.83623 11.1562 8.78461 11.0712 8.74939C10.9863 8.71417 10.8953 8.69604 10.8033 8.69604C10.7114 8.69604 10.6204 8.71417 10.5354 8.74939C10.4505 8.78461 10.3734 8.83623 10.3084 8.90129L9.19257 10.0171C8.67525 9.86314 7.70991 9.51313 7.09809 8.90129C6.48627 8.28946 6.13625 7.32412 5.98225 6.80679L7.09809 5.69093C7.16315 5.62598 7.21477 5.54883 7.24999 5.46391C7.28521 5.37898 7.30334 5.28795 7.30334 5.19601C7.30334 5.10407 7.28521 5.01304 7.24999 4.92811C7.21477 4.84319 7.16315 4.76604 7.09809 4.70109L4.29798 1.90094C4.16415 1.77463 3.98709 1.70426 3.80306 1.70426C3.61903 1.70426 3.44197 1.77463 3.30814 1.90094L1.41037 3.79944C1.14436 4.06545 0.994551 4.43087 1.00015 4.80399C1.01625 5.80084 1.28016 9.26321 4.00887 11.9919C6.73758 14.7207 10.1999 14.9839 11.1967 15ZM3.80376 3.38572L5.61403 5.19601L4.7089 6.10115C4.62653 6.1833 4.56602 6.28474 4.53288 6.39625C4.49975 6.50776 4.49504 6.62579 4.51919 6.73959C4.53599 6.82009 4.94691 8.72909 6.10895 9.89114C7.271 11.0532 9.17997 11.4641 9.26047 11.4809C9.37426 11.5052 9.49233 11.5006 9.60386 11.4674C9.71539 11.4343 9.81683 11.3737 9.8989 11.2912L10.804 10.3861L12.6143 12.1964L11.21 13.5999C10.3364 13.5852 7.3473 13.3507 4.99871 11.0014C2.64242 8.64508 2.41421 5.64543 2.40021 4.78929L3.80376 3.38572ZM13.5999 7.29961H15C15 3.70844 12.2888 1 8.69275 1V2.40007C11.5363 2.40007 13.5999 4.46027 13.5999 7.29961Z" fill="white"/>
<path d="M9.5 4.12187V3.52039C10.4424 3.60006 11.1376 3.90971 11.6139 4.38605C12.0903 4.8624 12.3999 5.55761 12.4796 6.5H11.8781C11.8151 5.8192 11.6097 5.24081 11.1845 4.81555C10.7592 4.39029 10.1808 4.18491 9.5 4.12187Z" stroke="white"/>
</svg>
