<svg width="12" height="12" viewBox="0 0 12 12" fill="none" xmlns="http://www.w3.org/2000/svg">
<path d="M10.1234 0.596271L10.2351 0.484521C10.3192 0.400459 10.4191 0.333786 10.5289 0.288311C10.6388 0.242836 10.7566 0.219448 10.8755 0.219482C10.9944 0.219517 11.1122 0.242974 11.222 0.288514C11.3319 0.334054 11.4317 0.400784 11.5157 0.484896C11.5998 0.569008 11.6665 0.668853 11.7119 0.778731C11.7574 0.88861 11.7808 1.00637 11.7808 1.12529C11.7807 1.2442 11.7573 1.36195 11.7117 1.4718C11.6662 1.58165 11.5995 1.68146 11.5154 1.76552L11.4036 1.87652C11.5948 2.09092 11.6967 2.37032 11.6885 2.65744C11.6802 2.94457 11.5625 3.21767 11.3594 3.42077L3.64036 11.1405C3.59211 11.1885 3.5317 11.2225 3.46561 11.2388L0.465612 11.9888C0.402831 12.0044 0.337074 12.0035 0.274732 11.9862C0.212389 11.9689 0.155583 11.9358 0.109835 11.89C0.0640867 11.8443 0.0309526 11.7875 0.0136536 11.7252C-0.0036455 11.6628 -0.00452105 11.5971 0.011112 11.5343L0.761112 8.53427C0.777522 8.46845 0.811477 8.40832 0.859362 8.36027L8.09086 1.12877C8.01854 1.07787 7.93055 1.05417 7.84244 1.06185C7.75434 1.06954 7.67178 1.10812 7.60936 1.17077L5.14036 3.64052C5.1055 3.67539 5.0641 3.70304 5.01855 3.72191C4.97299 3.74078 4.92417 3.7505 4.87486 3.7505C4.82555 3.7505 4.77673 3.74078 4.73117 3.72191C4.68562 3.70304 4.64423 3.67539 4.60936 3.64052C4.5745 3.60566 4.54684 3.56426 4.52797 3.51871C4.5091 3.47315 4.49939 3.42433 4.49939 3.37502C4.49939 3.32571 4.5091 3.27689 4.52797 3.23133C4.54684 3.18578 4.5745 3.14439 4.60936 3.10952L7.07986 0.640521C7.28309 0.437283 7.5564 0.319537 7.84371 0.311448C8.13101 0.303358 8.41052 0.40554 8.62486 0.597021C8.83093 0.41285 9.09759 0.31098 9.37397 0.310842C9.65035 0.310703 9.9171 0.412307 10.1234 0.596271ZM9.64036 1.17077C9.57004 1.10047 9.47467 1.06098 9.37524 1.06098C9.2758 1.06098 9.18043 1.10047 9.11011 1.17077L1.46236 8.81702L0.889362 11.1098L3.18211 10.5368L10.8299 2.89052C10.8648 2.85569 10.8925 2.81431 10.9114 2.76875C10.9303 2.72319 10.94 2.67435 10.94 2.62502C10.94 2.5757 10.9303 2.52685 10.9114 2.4813C10.8925 2.43574 10.8648 2.39436 10.8299 2.35952L9.64036 1.17077Z" fill="#8A8FB9"/>
</svg>
